<svg width="306" height="101" viewBox="0 0 306 101" fill="none" xmlns="http://www.w3.org/2000/svg">
<g clip-path="url(#clip0_420_13)">
<mask id="path-1-outside-1_420_13" maskUnits="userSpaceOnUse" x="49" y="56" width="254" height="43" fill="black">
<rect fill="white" x="49" y="56" width="254" height="43"/>
<path d="M65.25 59.9C68.95 59.9 72.1833 60.6333 74.95 62.1C77.7167 63.5667 79.85 65.6333 81.35 68.3C82.8833 70.9333 83.65 73.9833 83.65 77.45C83.65 80.8833 82.8833 83.9333 81.35 86.6C79.85 89.2667 77.7 91.3333 74.9 92.8C72.1333 94.2667 68.9167 95 65.25 95H52.1V59.9H65.25ZM64.7 87.6C67.9333 87.6 70.45 86.7167 72.25 84.95C74.05 83.1833 74.95 80.6833 74.95 77.45C74.95 74.2167 74.05 71.7 72.25 69.9C70.45 68.1 67.9333 67.2 64.7 67.2H60.65V87.6H64.7ZM120.278 88.8H107.178L105.078 95H96.1281L108.828 59.9H118.728L131.428 95H122.378L120.278 88.8ZM118.078 82.2L113.728 69.35L109.428 82.2H118.078ZM153.843 59.9V95H145.293V59.9H153.843ZM187.939 95L180.639 81.75H178.589V95H170.039V59.9H184.389C187.156 59.9 189.506 60.3833 191.439 61.35C193.406 62.3167 194.873 63.65 195.839 65.35C196.806 67.0167 197.289 68.8833 197.289 70.95C197.289 73.2833 196.623 75.3667 195.289 77.2C193.989 79.0333 192.056 80.3333 189.489 81.1L197.589 95H187.939ZM178.589 75.7H183.889C185.456 75.7 186.623 75.3167 187.389 74.55C188.189 73.7833 188.589 72.7 188.589 71.3C188.589 69.9667 188.189 68.9167 187.389 68.15C186.623 67.3833 185.456 67 183.889 67H178.589V75.7ZM221.207 59.9V95H212.657V59.9H221.207ZM245.953 66.75V73.85H257.403V80.45H245.953V88.15H258.903V95H237.403V59.9H258.903V66.75H245.953ZM287.154 95.35C284.587 95.35 282.287 94.9333 280.254 94.1C278.22 93.2667 276.587 92.0333 275.354 90.4C274.154 88.7667 273.52 86.8 273.454 84.5H282.554C282.687 85.8 283.137 86.8 283.904 87.5C284.67 88.1667 285.67 88.5 286.904 88.5C288.17 88.5 289.17 88.2167 289.904 87.65C290.637 87.05 291.004 86.2333 291.004 85.2C291.004 84.3333 290.704 83.6167 290.104 83.05C289.537 82.4833 288.82 82.0167 287.954 81.65C287.12 81.2833 285.92 80.8667 284.354 80.4C282.087 79.7 280.237 79 278.804 78.3C277.37 77.6 276.137 76.5667 275.104 75.2C274.07 73.8333 273.554 72.05 273.554 69.85C273.554 66.5833 274.737 64.0333 277.104 62.2C279.47 60.3333 282.554 59.4 286.354 59.4C290.22 59.4 293.337 60.3333 295.704 62.2C298.07 64.0333 299.337 66.6 299.504 69.9H290.254C290.187 68.7667 289.77 67.8833 289.004 67.25C288.237 66.5833 287.254 66.25 286.054 66.25C285.02 66.25 284.187 66.5333 283.554 67.1C282.92 67.6333 282.604 68.4167 282.604 69.45C282.604 70.5833 283.137 71.4667 284.204 72.1C285.27 72.7333 286.937 73.4167 289.204 74.15C291.47 74.9167 293.304 75.65 294.704 76.35C296.137 77.05 297.37 78.0667 298.404 79.4C299.437 80.7333 299.954 82.45 299.954 84.55C299.954 86.55 299.437 88.3667 298.404 90C297.404 91.6333 295.937 92.9333 294.004 93.9C292.07 94.8667 289.787 95.35 287.154 95.35Z"/>
</mask>
<path d="M65.25 59.9C68.95 59.9 72.1833 60.6333 74.95 62.1C77.7167 63.5667 79.85 65.6333 81.35 68.3C82.8833 70.9333 83.65 73.9833 83.65 77.45C83.65 80.8833 82.8833 83.9333 81.35 86.6C79.85 89.2667 77.7 91.3333 74.9 92.8C72.1333 94.2667 68.9167 95 65.25 95H52.1V59.9H65.25ZM64.7 87.6C67.9333 87.6 70.45 86.7167 72.25 84.95C74.05 83.1833 74.95 80.6833 74.95 77.45C74.95 74.2167 74.05 71.7 72.25 69.9C70.45 68.1 67.9333 67.2 64.7 67.2H60.65V87.6H64.7ZM120.278 88.8H107.178L105.078 95H96.1281L108.828 59.9H118.728L131.428 95H122.378L120.278 88.8ZM118.078 82.2L113.728 69.35L109.428 82.2H118.078ZM153.843 59.9V95H145.293V59.9H153.843ZM187.939 95L180.639 81.75H178.589V95H170.039V59.9H184.389C187.156 59.9 189.506 60.3833 191.439 61.35C193.406 62.3167 194.873 63.65 195.839 65.35C196.806 67.0167 197.289 68.8833 197.289 70.95C197.289 73.2833 196.623 75.3667 195.289 77.2C193.989 79.0333 192.056 80.3333 189.489 81.1L197.589 95H187.939ZM178.589 75.7H183.889C185.456 75.7 186.623 75.3167 187.389 74.55C188.189 73.7833 188.589 72.7 188.589 71.3C188.589 69.9667 188.189 68.9167 187.389 68.15C186.623 67.3833 185.456 67 183.889 67H178.589V75.7ZM221.207 59.9V95H212.657V59.9H221.207ZM245.953 66.75V73.85H257.403V80.45H245.953V88.15H258.903V95H237.403V59.9H258.903V66.75H245.953ZM287.154 95.35C284.587 95.35 282.287 94.9333 280.254 94.1C278.22 93.2667 276.587 92.0333 275.354 90.4C274.154 88.7667 273.52 86.8 273.454 84.5H282.554C282.687 85.8 283.137 86.8 283.904 87.5C284.67 88.1667 285.67 88.5 286.904 88.5C288.17 88.5 289.17 88.2167 289.904 87.65C290.637 87.05 291.004 86.2333 291.004 85.2C291.004 84.3333 290.704 83.6167 290.104 83.05C289.537 82.4833 288.82 82.0167 287.954 81.65C287.12 81.2833 285.92 80.8667 284.354 80.4C282.087 79.7 280.237 79 278.804 78.3C277.37 77.6 276.137 76.5667 275.104 75.2C274.07 73.8333 273.554 72.05 273.554 69.85C273.554 66.5833 274.737 64.0333 277.104 62.2C279.47 60.3333 282.554 59.4 286.354 59.4C290.22 59.4 293.337 60.3333 295.704 62.2C298.07 64.0333 299.337 66.6 299.504 69.9H290.254C290.187 68.7667 289.77 67.8833 289.004 67.25C288.237 66.5833 287.254 66.25 286.054 66.25C285.02 66.25 284.187 66.5333 283.554 67.1C282.92 67.6333 282.604 68.4167 282.604 69.45C282.604 70.5833 283.137 71.4667 284.204 72.1C285.27 72.7333 286.937 73.4167 289.204 74.15C291.47 74.9167 293.304 75.65 294.704 76.35C296.137 77.05 297.37 78.0667 298.404 79.4C299.437 80.7333 299.954 82.45 299.954 84.55C299.954 86.55 299.437 88.3667 298.404 90C297.404 91.6333 295.937 92.9333 294.004 93.9C292.07 94.8667 289.787 95.35 287.154 95.35Z" fill="white"/>
<path d="M74.95 62.1L76.3551 59.4494L76.3551 59.4494L74.95 62.1ZM81.35 68.3L78.7353 69.7708L78.7462 69.7903L78.7575 69.8096L81.35 68.3ZM81.35 86.6L78.7493 85.1046L78.7422 85.1169L78.7353 85.1292L81.35 86.6ZM74.9 92.8L73.508 90.1425L73.5014 90.1459L73.4949 90.1494L74.9 92.8ZM52.1 95H49.1V98H52.1V95ZM52.1 59.9V56.9H49.1V59.9H52.1ZM60.65 67.2V64.2H57.65V67.2H60.65ZM60.65 87.6H57.65V90.6H60.65V87.6ZM65.25 62.9C68.549 62.9 71.2833 63.5517 73.5449 64.7506L76.3551 59.4494C73.0834 57.715 69.351 56.9 65.25 56.9V62.9ZM73.5449 64.7506C75.8162 65.9547 77.524 67.6174 78.7353 69.7708L83.9647 66.8292C82.176 63.6492 79.6171 61.1786 76.3551 59.4494L73.5449 64.7506ZM78.7575 69.8096C79.9889 71.9244 80.65 74.4394 80.65 77.45H86.65C86.65 73.5273 85.7778 69.9423 83.9425 66.7904L78.7575 69.8096ZM80.65 77.45C80.65 80.4208 79.9916 82.944 78.7493 85.1046L83.9507 88.0954C85.7751 84.9226 86.65 81.3458 86.65 77.45H80.65ZM78.7353 85.1292C77.5294 87.2731 75.8122 88.9355 73.508 90.1425L76.292 95.4575C79.5878 93.7312 82.1706 91.2603 83.9647 88.0708L78.7353 85.1292ZM73.4949 90.1494C71.2295 91.3503 68.5107 92 65.25 92V98C69.3227 98 73.0372 97.183 76.3051 95.4506L73.4949 90.1494ZM65.25 92H52.1V98H65.25V92ZM55.1 95V59.9H49.1V95H55.1ZM52.1 62.9H65.25V56.9H52.1V62.9ZM64.7 90.6C68.4878 90.6 71.8445 89.5515 74.3514 87.0911L70.1486 82.8089C69.0555 83.8818 67.3788 84.6 64.7 84.6V90.6ZM74.3514 87.0911C76.8766 84.6126 77.95 81.2502 77.95 77.45H71.95C71.95 80.1165 71.2234 81.7541 70.1486 82.8089L74.3514 87.0911ZM77.95 77.45C77.95 73.6469 76.8757 70.2831 74.3713 67.7787L70.1287 72.0213C71.2243 73.1169 71.95 74.7865 71.95 77.45H77.95ZM74.3713 67.7787C71.8669 65.2743 68.5031 64.2 64.7 64.2V70.2C67.3635 70.2 69.0331 70.9257 70.1287 72.0213L74.3713 67.7787ZM64.7 64.2H60.65V70.2H64.7V64.2ZM57.65 67.2V87.6H63.65V67.2H57.65ZM60.65 90.6H64.7V84.6H60.65V90.6ZM120.278 88.8L123.12 87.8376L122.429 85.8H120.278V88.8ZM107.178 88.8V85.8H105.027L104.337 87.8376L107.178 88.8ZM105.078 95V98H107.229L107.92 95.9624L105.078 95ZM96.1281 95L93.3071 93.9793L91.8523 98H96.1281V95ZM108.828 59.9V56.9H106.723L106.007 58.8793L108.828 59.9ZM118.728 59.9L121.549 58.8793L120.833 56.9H118.728V59.9ZM131.428 95V98H135.704L134.249 93.9793L131.428 95ZM122.378 95L119.537 95.9624L120.227 98H122.378V95ZM118.078 82.2V85.2H122.261L120.92 81.2381L118.078 82.2ZM113.728 69.35L116.57 68.3881L113.712 59.9454L110.883 68.398L113.728 69.35ZM109.428 82.2L106.583 81.248L105.261 85.2H109.428V82.2ZM120.278 85.8H107.178V91.8H120.278V85.8ZM104.337 87.8376L102.237 94.0376L107.92 95.9624L110.02 89.7624L104.337 87.8376ZM105.078 92H96.1281V98H105.078V92ZM98.9491 96.0207L111.649 60.9207L106.007 58.8793L93.3071 93.9793L98.9491 96.0207ZM108.828 62.9H118.728V56.9H108.828V62.9ZM115.907 60.9207L128.607 96.0207L134.249 93.9793L121.549 58.8793L115.907 60.9207ZM131.428 92H122.378V98H131.428V92ZM125.22 94.0376L123.12 87.8376L117.437 89.7624L119.537 95.9624L125.22 94.0376ZM120.92 81.2381L116.57 68.3881L110.887 70.3119L115.237 83.1619L120.92 81.2381ZM110.883 68.398L106.583 81.248L112.273 83.152L116.573 70.302L110.883 68.398ZM109.428 85.2H118.078V79.2H109.428V85.2ZM153.843 59.9H156.843V56.9H153.843V59.9ZM153.843 95V98H156.843V95H153.843ZM145.293 95H142.293V98H145.293V95ZM145.293 59.9V56.9H142.293V59.9H145.293ZM150.843 59.9V95H156.843V59.9H150.843ZM153.843 92H145.293V98H153.843V92ZM148.293 95V59.9H142.293V95H148.293ZM145.293 62.9H153.843V56.9H145.293V62.9ZM187.939 95L185.312 96.4477L186.167 98H187.939V95ZM180.639 81.75L183.267 80.3023L182.412 78.75H180.639V81.75ZM178.589 81.75V78.75H175.589V81.75H178.589ZM178.589 95V98H181.589V95H178.589ZM170.039 95H167.039V98H170.039V95ZM170.039 59.9V56.9H167.039V59.9H170.039ZM191.439 61.35L190.098 64.0333L190.107 64.0378L190.116 64.0423L191.439 61.35ZM195.839 65.35L193.232 66.8329L193.238 66.8441L193.244 66.8552L195.839 65.35ZM195.289 77.2L192.863 75.4355L192.853 75.45L192.842 75.4647L195.289 77.2ZM189.489 81.1L188.631 78.2255L184.978 79.3166L186.897 82.6105L189.489 81.1ZM197.589 95V98H202.81L200.181 93.4895L197.589 95ZM178.589 75.7H175.589V78.7H178.589V75.7ZM187.389 74.55L185.314 72.384L185.291 72.4061L185.268 72.4287L187.389 74.55ZM187.389 68.15L185.268 70.2713L185.291 70.2939L185.314 70.316L187.389 68.15ZM178.589 67V64H175.589V67H178.589ZM190.567 93.5523L183.267 80.3023L178.012 83.1977L185.312 96.4477L190.567 93.5523ZM180.639 78.75H178.589V84.75H180.639V78.75ZM175.589 81.75V95H181.589V81.75H175.589ZM178.589 92H170.039V98H178.589V92ZM173.039 95V59.9H167.039V95H173.039ZM170.039 62.9H184.389V56.9H170.039V62.9ZM184.389 62.9C186.817 62.9 188.681 63.3249 190.098 64.0333L192.781 58.6667C190.331 57.4418 187.495 56.9 184.389 56.9V62.9ZM190.116 64.0423C191.611 64.7769 192.597 65.7175 193.232 66.8329L198.447 63.8671C197.148 61.5825 195.202 59.8564 192.763 58.6577L190.116 64.0423ZM193.244 66.8552C193.927 68.0314 194.289 69.3722 194.289 70.95H200.289C200.289 68.3944 199.686 66.002 198.435 63.8448L193.244 66.8552ZM194.289 70.95C194.289 72.6692 193.812 74.1308 192.863 75.4355L197.716 78.9645C199.433 76.6026 200.289 73.8975 200.289 70.95H194.289ZM192.842 75.4647C192 76.6521 190.683 77.6124 188.631 78.2255L190.348 83.9745C193.429 83.0542 195.979 81.4146 197.737 78.9353L192.842 75.4647ZM186.897 82.6105L194.997 96.5105L200.181 93.4895L192.081 79.5895L186.897 82.6105ZM197.589 92H187.939V98H197.589V92ZM178.589 78.7H183.889V72.7H178.589V78.7ZM183.889 78.7C185.897 78.7 187.972 78.2098 189.511 76.6713L185.268 72.4287C185.259 72.4379 185.199 72.4979 185.003 72.5624C184.792 72.6317 184.438 72.7 183.889 72.7V78.7ZM189.465 76.716C191.002 75.2429 191.589 73.2895 191.589 71.3H185.589C185.589 72.1105 185.377 72.3238 185.314 72.384L189.465 76.716ZM191.589 71.3C191.589 69.3279 190.973 67.4295 189.465 65.984L185.314 70.316C185.405 70.4039 185.589 70.6054 185.589 71.3H191.589ZM189.511 66.0287C187.972 64.4902 185.897 64 183.889 64V70C184.438 70 184.792 70.0683 185.003 70.1376C185.199 70.2021 185.259 70.2621 185.268 70.2713L189.511 66.0287ZM183.889 64H178.589V70H183.889V64ZM175.589 67V75.7H181.589V67H175.589ZM221.207 59.9H224.207V56.9H221.207V59.9ZM221.207 95V98H224.207V95H221.207ZM212.657 95H209.657V98H212.657V95ZM212.657 59.9V56.9H209.657V59.9H212.657ZM218.207 59.9V95H224.207V59.9H218.207ZM221.207 92H212.657V98H221.207V92ZM215.657 95V59.9H209.657V95H215.657ZM212.657 62.9H221.207V56.9H212.657V62.9ZM245.953 66.75V63.75H242.953V66.75H245.953ZM245.953 73.85H242.953V76.85H245.953V73.85ZM257.403 73.85H260.403V70.85H257.403V73.85ZM257.403 80.45V83.45H260.403V80.45H257.403ZM245.953 80.45V77.45H242.953V80.45H245.953ZM245.953 88.15H242.953V91.15H245.953V88.15ZM258.903 88.15H261.903V85.15H258.903V88.15ZM258.903 95V98H261.903V95H258.903ZM237.403 95H234.403V98H237.403V95ZM237.403 59.9V56.9H234.403V59.9H237.403ZM258.903 59.9H261.903V56.9H258.903V59.9ZM258.903 66.75V69.75H261.903V66.75H258.903ZM242.953 66.75V73.85H248.953V66.75H242.953ZM245.953 76.85H257.403V70.85H245.953V76.85ZM254.403 73.85V80.45H260.403V73.85H254.403ZM257.403 77.45H245.953V83.45H257.403V77.45ZM242.953 80.45V88.15H248.953V80.45H242.953ZM245.953 91.15H258.903V85.15H245.953V91.15ZM255.903 88.15V95H261.903V88.15H255.903ZM258.903 92H237.403V98H258.903V92ZM240.403 95V59.9H234.403V95H240.403ZM237.403 62.9H258.903V56.9H237.403V62.9ZM255.903 59.9V66.75H261.903V59.9H255.903ZM258.903 63.75H245.953V69.75H258.903V63.75ZM280.254 94.1L279.116 96.8759L280.254 94.1ZM275.354 90.4L272.936 92.1762L272.948 92.1921L272.959 92.2078L275.354 90.4ZM273.454 84.5V81.5H270.365L270.455 84.5869L273.454 84.5ZM282.554 84.5L285.538 84.1939L285.262 81.5H282.554V84.5ZM283.904 87.5L281.881 89.7155L281.908 89.74L281.935 89.7638L283.904 87.5ZM289.904 87.65L291.738 90.0239L291.771 89.9983L291.803 89.9719L289.904 87.65ZM290.104 83.05L287.982 85.1713L288.012 85.2016L288.044 85.231L290.104 83.05ZM287.954 81.65L286.745 84.3959L286.765 84.4046L286.785 84.4129L287.954 81.65ZM284.354 80.4L283.468 83.2664L283.483 83.2709L283.497 83.2752L284.354 80.4ZM278.804 78.3L277.487 80.9957L278.804 78.3ZM275.104 75.2L277.496 73.3907L275.104 75.2ZM277.104 62.2L278.941 64.5716L278.951 64.5636L278.961 64.5555L277.104 62.2ZM295.704 62.2L293.846 64.5555L293.856 64.5636L293.866 64.5716L295.704 62.2ZM299.504 69.9V72.9H302.659L302.5 69.7487L299.504 69.9ZM290.254 69.9L287.259 70.0762L287.425 72.9H290.254V69.9ZM289.004 67.25L287.035 69.5138L287.064 69.5387L287.093 69.5629L289.004 67.25ZM283.554 67.1L285.486 69.3947L285.52 69.3657L285.554 69.3357L283.554 67.1ZM284.204 72.1L285.735 69.5204V69.5204L284.204 72.1ZM289.204 74.15L290.165 71.3082L290.146 71.3018L290.127 71.2957L289.204 74.15ZM294.704 76.35L293.362 79.0333L293.374 79.0396L293.387 79.0457L294.704 76.35ZM298.404 79.4L296.032 81.2377V81.2377L298.404 79.4ZM298.404 90L295.868 88.3961L295.856 88.4147L295.845 88.4335L298.404 90ZM294.004 93.9L292.662 91.2167L294.004 93.9ZM287.154 92.35C284.912 92.35 283.008 91.9868 281.391 91.3241L279.116 96.8759C281.566 97.8799 284.261 98.35 287.154 98.35V92.35ZM281.391 91.3241C279.818 90.6793 278.633 89.7643 277.748 88.5922L272.959 92.2078C274.541 94.3024 276.622 95.854 279.116 96.8759L281.391 91.3241ZM277.771 88.6238C276.979 87.5461 276.504 86.1894 276.452 84.4131L270.455 84.5869C270.537 87.4106 271.328 89.9873 272.936 92.1762L277.771 88.6238ZM273.454 87.5H282.554V81.5H273.454V87.5ZM279.569 84.8061C279.758 86.6425 280.44 88.3999 281.881 89.7155L285.926 85.2845C285.834 85.2001 285.616 84.9575 285.538 84.1939L279.569 84.8061ZM281.935 89.7638C283.358 91.0015 285.108 91.5 286.904 91.5V85.5C286.232 85.5 285.982 85.3318 285.872 85.2362L281.935 89.7638ZM286.904 91.5C288.594 91.5 290.316 91.1224 291.738 90.0239L288.069 85.2761C288.024 85.3109 287.747 85.5 286.904 85.5V91.5ZM291.803 89.9719C293.302 88.7458 294.004 87.0403 294.004 85.2H288.004C288.004 85.281 287.996 85.3292 287.992 85.3511C287.988 85.3719 287.986 85.372 287.992 85.3587C287.998 85.3449 288.007 85.3304 288.015 85.3195C288.023 85.3091 288.023 85.3126 288.004 85.3281L291.803 89.9719ZM294.004 85.2C294.004 83.5544 293.396 82.0335 292.163 80.869L288.044 85.231C288.054 85.241 288.051 85.2396 288.041 85.2257C288.031 85.2113 288.02 85.1922 288.011 85.1709C288.007 85.161 288.004 85.1524 288.002 85.146C288 85.1395 288 85.1362 288 85.1366C288 85.1372 288.004 85.1567 288.004 85.2H294.004ZM292.225 80.9287C291.342 80.0456 290.284 79.3785 289.122 78.8871L286.785 84.4129C287.356 84.6548 287.732 84.9211 287.982 85.1713L292.225 80.9287ZM289.162 78.9041C288.158 78.4624 286.818 78.0039 285.21 77.5248L283.497 83.2752C285.022 83.7294 286.082 84.1043 286.745 84.3959L289.162 78.9041ZM285.239 77.5336C283.056 76.8595 281.365 76.2122 280.12 75.6043L277.487 80.9957C279.109 81.7878 281.118 82.5405 283.468 83.2664L285.239 77.5336ZM280.12 75.6043C279.141 75.1262 278.267 74.4099 277.496 73.3907L272.711 77.0093C274.007 78.7234 275.599 80.0738 277.487 80.9957L280.12 75.6043ZM277.496 73.3907C276.957 72.6765 276.554 71.5837 276.554 69.85H270.554C270.554 72.5163 271.184 74.9901 272.711 77.0093L277.496 73.3907ZM276.554 69.85C276.554 67.4139 277.381 65.7797 278.941 64.5716L275.266 59.8284C272.093 62.2869 270.554 65.7528 270.554 69.85H276.554ZM278.961 64.5555C280.674 63.2051 283.049 62.4 286.354 62.4V56.4C282.058 56.4 278.267 57.4616 275.246 59.8445L278.961 64.5555ZM286.354 62.4C289.739 62.4 292.142 63.2119 293.846 64.5555L297.561 59.8445C294.532 57.4548 290.701 56.4 286.354 56.4V62.4ZM293.866 64.5716C295.465 65.8097 296.38 67.523 296.507 70.0513L302.5 69.7487C302.294 65.677 300.676 62.2569 297.541 59.8284L293.866 64.5716ZM299.504 66.9H290.254V72.9H299.504V66.9ZM293.248 69.7238C293.14 67.8882 292.417 66.1786 290.914 64.9371L287.093 69.5629C287.142 69.6037 287.161 69.6323 287.178 69.6674C287.198 69.711 287.244 69.8307 287.259 70.0762L293.248 69.7238ZM290.972 64.9862C289.564 63.7614 287.839 63.25 286.054 63.25V69.25C286.668 69.25 286.91 69.4053 287.035 69.5138L290.972 64.9862ZM286.054 63.25C284.449 63.25 282.849 63.7044 281.553 64.8643L285.554 69.3357C285.559 69.3311 285.571 69.3193 285.619 69.3028C285.676 69.2835 285.81 69.25 286.054 69.25V63.25ZM281.621 64.8053C280.147 66.0462 279.604 67.7703 279.604 69.45H285.604C285.604 69.2352 285.637 69.1763 285.622 69.2119C285.615 69.2305 285.599 69.2634 285.571 69.3022C285.543 69.3413 285.512 69.3727 285.486 69.3947L281.621 64.8053ZM279.604 69.45C279.604 71.7576 280.799 73.5675 282.672 74.6796L285.735 69.5204C285.637 69.462 285.587 69.4192 285.567 69.4009C285.55 69.384 285.557 69.387 285.572 69.4119C285.587 69.4378 285.598 69.4656 285.604 69.4861C285.609 69.5049 285.604 69.4966 285.604 69.45H279.604ZM282.672 74.6796C284.033 75.4878 285.957 76.2529 288.28 77.0043L290.127 71.2957C287.916 70.5805 286.507 69.9788 285.735 69.5204L282.672 74.6796ZM288.242 76.9918C290.439 77.7349 292.131 78.4179 293.362 79.0333L296.045 73.6667C294.476 72.8821 292.501 72.0985 290.165 71.3082L288.242 76.9918ZM293.387 79.0457C294.384 79.5326 295.264 80.2459 296.032 81.2377L300.775 77.5623C299.477 75.8874 297.89 74.5674 296.02 73.6543L293.387 79.0457ZM296.032 81.2377C296.567 81.9273 296.954 82.9491 296.954 84.55H302.954C302.954 81.9509 302.307 79.5394 300.775 77.5623L296.032 81.2377ZM296.954 84.55C296.954 86.003 296.587 87.2599 295.868 88.3961L300.939 91.6039C302.287 89.4734 302.954 87.097 302.954 84.55H296.954ZM295.845 88.4335C295.175 89.5285 294.159 90.468 292.662 91.2167L295.345 96.5833C297.714 95.3987 299.632 93.7381 300.962 91.5665L295.845 88.4335ZM292.662 91.2167C291.226 91.9345 289.421 92.35 287.154 92.35V98.35C290.152 98.35 292.914 97.7988 295.345 96.5833L292.662 91.2167Z" fill="black" mask="url(#path-1-outside-1_420_13)"/>
<mask id="path-3-outside-2_420_13" maskUnits="userSpaceOnUse" x="3" y="1" width="300" height="43" fill="black">
<rect fill="white" x="3" y="1" width="300" height="43"/>
<path d="M32.85 16.2C32.85 18.2333 32.3833 20.1 31.45 21.8C30.5167 23.4667 29.0833 24.8167 27.15 25.85C25.2167 26.8833 22.8167 27.4 19.95 27.4H14.65V40H6.1V4.9H19.95C22.75 4.9 25.1167 5.38333 27.05 6.35C28.9833 7.31666 30.4333 8.65 31.4 10.35C32.3667 12.05 32.85 14 32.85 16.2ZM19.3 20.6C20.9333 20.6 22.15 20.2167 22.95 19.45C23.75 18.6833 24.15 17.6 24.15 16.2C24.15 14.8 23.75 13.7167 22.95 12.95C22.15 12.1833 20.9333 11.8 19.3 11.8H14.65V20.6H19.3ZM65.2012 40L57.9012 26.75H55.8512V40H47.3012V4.9H61.6512C64.4178 4.9 66.7678 5.38333 68.7012 6.35C70.6678 7.31666 72.1345 8.65 73.1012 10.35C74.0678 12.0167 74.5512 13.8833 74.5512 15.95C74.5512 18.2833 73.8845 20.3667 72.5512 22.2C71.2512 24.0333 69.3178 25.3333 66.7512 26.1L74.8512 40H65.2012ZM55.8512 20.7H61.1512C62.7178 20.7 63.8845 20.3167 64.6512 19.55C65.4512 18.7833 65.8512 17.7 65.8512 16.3C65.8512 14.9667 65.4512 13.9167 64.6512 13.15C63.8845 12.3833 62.7178 12 61.1512 12H55.8512V20.7ZM111.768 33.8H98.6684L96.5684 40H87.6184L100.318 4.9H110.218L122.918 40H113.868L111.768 33.8ZM109.568 27.2L105.218 14.35L100.918 27.2H109.568ZM157.134 40L145.334 24.5V40H136.784V4.9H145.334V20.3L157.034 4.9H167.084L153.484 22.1L167.584 40H157.134ZM203.497 33.8H190.397L188.297 40H179.347L192.047 4.9H201.947L214.647 40H205.597L203.497 33.8ZM201.297 27.2L196.947 14.35L192.647 27.2H201.297ZM241.212 40.35C238.645 40.35 236.345 39.9333 234.312 39.1C232.279 38.2667 230.645 37.0333 229.412 35.4C228.212 33.7667 227.579 31.8 227.512 29.5H236.612C236.745 30.8 237.195 31.8 237.962 32.5C238.729 33.1667 239.729 33.5 240.962 33.5C242.229 33.5 243.229 33.2167 243.962 32.65C244.695 32.05 245.062 31.2333 245.062 30.2C245.062 29.3333 244.762 28.6167 244.162 28.05C243.595 27.4833 242.879 27.0167 242.012 26.65C241.179 26.2833 239.979 25.8667 238.412 25.4C236.145 24.7 234.295 24 232.862 23.3C231.429 22.6 230.195 21.5667 229.162 20.2C228.129 18.8333 227.612 17.05 227.612 14.85C227.612 11.5833 228.795 9.03333 231.162 7.2C233.529 5.33333 236.612 4.4 240.412 4.4C244.279 4.4 247.395 5.33333 249.762 7.2C252.129 9.03333 253.395 11.6 253.562 14.9H244.312C244.245 13.7667 243.829 12.8833 243.062 12.25C242.295 11.5833 241.312 11.25 240.112 11.25C239.079 11.25 238.245 11.5333 237.612 12.1C236.979 12.6333 236.662 13.4167 236.662 14.45C236.662 15.5833 237.195 16.4667 238.262 17.1C239.329 17.7333 240.995 18.4167 243.262 19.15C245.529 19.9167 247.362 20.65 248.762 21.35C250.195 22.05 251.429 23.0667 252.462 24.4C253.495 25.7333 254.012 27.45 254.012 29.55C254.012 31.55 253.495 33.3667 252.462 35C251.462 36.6333 249.995 37.9333 248.062 38.9C246.129 39.8667 243.845 40.35 241.212 40.35ZM299.674 4.9V40H291.124V25.55H277.824V40H269.274V4.9H277.824V18.65H291.124V4.9H299.674Z"/>
</mask>
<path d="M32.85 16.2C32.85 18.2333 32.3833 20.1 31.45 21.8C30.5167 23.4667 29.0833 24.8167 27.15 25.85C25.2167 26.8833 22.8167 27.4 19.95 27.4H14.65V40H6.1V4.9H19.95C22.75 4.9 25.1167 5.38333 27.05 6.35C28.9833 7.31666 30.4333 8.65 31.4 10.35C32.3667 12.05 32.85 14 32.85 16.2ZM19.3 20.6C20.9333 20.6 22.15 20.2167 22.95 19.45C23.75 18.6833 24.15 17.6 24.15 16.2C24.15 14.8 23.75 13.7167 22.95 12.95C22.15 12.1833 20.9333 11.8 19.3 11.8H14.65V20.6H19.3ZM65.2012 40L57.9012 26.75H55.8512V40H47.3012V4.9H61.6512C64.4178 4.9 66.7678 5.38333 68.7012 6.35C70.6678 7.31666 72.1345 8.65 73.1012 10.35C74.0678 12.0167 74.5512 13.8833 74.5512 15.95C74.5512 18.2833 73.8845 20.3667 72.5512 22.2C71.2512 24.0333 69.3178 25.3333 66.7512 26.1L74.8512 40H65.2012ZM55.8512 20.7H61.1512C62.7178 20.7 63.8845 20.3167 64.6512 19.55C65.4512 18.7833 65.8512 17.7 65.8512 16.3C65.8512 14.9667 65.4512 13.9167 64.6512 13.15C63.8845 12.3833 62.7178 12 61.1512 12H55.8512V20.7ZM111.768 33.8H98.6684L96.5684 40H87.6184L100.318 4.9H110.218L122.918 40H113.868L111.768 33.8ZM109.568 27.2L105.218 14.35L100.918 27.2H109.568ZM157.134 40L145.334 24.5V40H136.784V4.9H145.334V20.3L157.034 4.9H167.084L153.484 22.1L167.584 40H157.134ZM203.497 33.8H190.397L188.297 40H179.347L192.047 4.9H201.947L214.647 40H205.597L203.497 33.8ZM201.297 27.2L196.947 14.35L192.647 27.2H201.297ZM241.212 40.35C238.645 40.35 236.345 39.9333 234.312 39.1C232.279 38.2667 230.645 37.0333 229.412 35.4C228.212 33.7667 227.579 31.8 227.512 29.5H236.612C236.745 30.8 237.195 31.8 237.962 32.5C238.729 33.1667 239.729 33.5 240.962 33.5C242.229 33.5 243.229 33.2167 243.962 32.65C244.695 32.05 245.062 31.2333 245.062 30.2C245.062 29.3333 244.762 28.6167 244.162 28.05C243.595 27.4833 242.879 27.0167 242.012 26.65C241.179 26.2833 239.979 25.8667 238.412 25.4C236.145 24.7 234.295 24 232.862 23.3C231.429 22.6 230.195 21.5667 229.162 20.2C228.129 18.8333 227.612 17.05 227.612 14.85C227.612 11.5833 228.795 9.03333 231.162 7.2C233.529 5.33333 236.612 4.4 240.412 4.4C244.279 4.4 247.395 5.33333 249.762 7.2C252.129 9.03333 253.395 11.6 253.562 14.9H244.312C244.245 13.7667 243.829 12.8833 243.062 12.25C242.295 11.5833 241.312 11.25 240.112 11.25C239.079 11.25 238.245 11.5333 237.612 12.1C236.979 12.6333 236.662 13.4167 236.662 14.45C236.662 15.5833 237.195 16.4667 238.262 17.1C239.329 17.7333 240.995 18.4167 243.262 19.15C245.529 19.9167 247.362 20.65 248.762 21.35C250.195 22.05 251.429 23.0667 252.462 24.4C253.495 25.7333 254.012 27.45 254.012 29.55C254.012 31.55 253.495 33.3667 252.462 35C251.462 36.6333 249.995 37.9333 248.062 38.9C246.129 39.8667 243.845 40.35 241.212 40.35ZM299.674 4.9V40H291.124V25.55H277.824V40H269.274V4.9H277.824V18.65H291.124V4.9H299.674Z" fill="black"/>
<path d="M31.45 21.8L34.0675 23.2658L34.0737 23.2548L34.0797 23.2438L31.45 21.8ZM27.15 25.85L25.7359 23.2042L27.15 25.85ZM14.65 27.4V24.4H11.65V27.4H14.65ZM14.65 40V43H17.65V40H14.65ZM6.1 40H3.1V43H6.1V40ZM6.1 4.9V1.9H3.1V4.9H6.1ZM27.05 6.35L28.3916 3.66672L27.05 6.35ZM14.65 11.8V8.8H11.65V11.8H14.65ZM14.65 20.6H11.65V23.6H14.65V20.6ZM29.85 16.2C29.85 17.7539 29.4988 19.1204 28.8203 20.3562L34.0797 23.2438C35.2679 21.0796 35.85 18.7127 35.85 16.2H29.85ZM28.8325 20.3342C28.2188 21.43 27.24 22.4003 25.7359 23.2042L28.5641 28.4958C30.9266 27.2331 32.8145 25.5033 34.0675 23.2658L28.8325 20.3342ZM25.7359 23.2042C24.3509 23.9444 22.4701 24.4 19.95 24.4V30.4C23.1632 30.4 26.0824 29.8222 28.5641 28.4958L25.7359 23.2042ZM19.95 24.4H14.65V30.4H19.95V24.4ZM11.65 27.4V40H17.65V27.4H11.65ZM14.65 37H6.1V43H14.65V37ZM9.1 40V4.9H3.1V40H9.1ZM6.1 7.9H19.95V1.9H6.1V7.9ZM19.95 7.9C22.4171 7.9 24.296 8.32712 25.7084 9.03328L28.3916 3.66672C25.9373 2.43955 23.0829 1.9 19.95 1.9V7.9ZM25.7084 9.03328C27.1683 9.76323 28.1499 10.7035 28.7921 11.8329L34.0079 8.86709C32.7168 6.5965 30.7984 4.87009 28.3916 3.66672L25.7084 9.03328ZM28.7921 11.8329C29.4709 13.0267 29.85 14.4537 29.85 16.2H35.85C35.85 13.5463 35.2624 11.0733 34.0079 8.86709L28.7921 11.8329ZM19.3 23.6C21.3443 23.6 23.4512 23.1249 25.0257 21.616L20.8743 17.284C20.8488 17.3084 20.5223 17.6 19.3 17.6V23.6ZM25.0257 21.616C26.5629 20.1429 27.15 18.1895 27.15 16.2H21.15C21.15 17.0105 20.9371 17.2238 20.8743 17.284L25.0257 21.616ZM27.15 16.2C27.15 14.2105 26.5629 12.2571 25.0257 10.784L20.8743 15.116C20.9371 15.1762 21.15 15.3895 21.15 16.2H27.15ZM25.0257 10.784C23.4512 9.27508 21.3443 8.8 19.3 8.8V14.8C20.5223 14.8 20.8488 15.0916 20.8743 15.116L25.0257 10.784ZM19.3 8.8H14.65V14.8H19.3V8.8ZM11.65 11.8V20.6H17.65V11.8H11.65ZM14.65 23.6H19.3V17.6H14.65V23.6ZM65.2012 40L62.5736 41.4477L63.4288 43H65.2012V40ZM57.9012 26.75L60.5288 25.3023L59.6735 23.75H57.9012V26.75ZM55.8512 26.75V23.75H52.8512V26.75H55.8512ZM55.8512 40V43H58.8512V40H55.8512ZM47.3012 40H44.3012V43H47.3012V40ZM47.3012 4.9V1.9H44.3012V4.9H47.3012ZM68.7012 6.35L67.3595 9.03328L67.3687 9.03784L67.3778 9.04235L68.7012 6.35ZM73.1012 10.35L70.4933 11.8329L70.4996 11.8441L70.5061 11.8552L73.1012 10.35ZM72.5512 22.2L70.125 20.4355L70.1144 20.45L70.104 20.4647L72.5512 22.2ZM66.7512 26.1L65.8926 23.2255L62.2397 24.3166L64.1592 27.6105L66.7512 26.1ZM74.8512 40V43H80.0716L77.4432 38.4895L74.8512 40ZM55.8512 20.7H52.8512V23.7H55.8512V20.7ZM64.6512 19.55L62.5755 17.384L62.5524 17.4061L62.5299 17.4287L64.6512 19.55ZM64.6512 13.15L62.5299 15.2713L62.5524 15.2939L62.5755 15.316L64.6512 13.15ZM55.8512 12V9H52.8512V12H55.8512ZM67.8288 38.5523L60.5288 25.3023L55.2736 28.1977L62.5736 41.4477L67.8288 38.5523ZM57.9012 23.75H55.8512V29.75H57.9012V23.75ZM52.8512 26.75V40H58.8512V26.75H52.8512ZM55.8512 37H47.3012V43H55.8512V37ZM50.3012 40V4.9H44.3012V40H50.3012ZM47.3012 7.9H61.6512V1.9H47.3012V7.9ZM61.6512 7.9C64.0785 7.9 65.9427 8.32488 67.3595 9.03328L70.0428 3.66672C67.5929 2.44178 64.7572 1.9 61.6512 1.9V7.9ZM67.3778 9.04235C68.8723 9.77693 69.8591 10.7175 70.4933 11.8329L75.709 8.86709C74.41 6.58249 72.4634 4.8564 70.0245 3.65765L67.3778 9.04235ZM70.5061 11.8552C71.1883 13.0314 71.5512 14.3722 71.5512 15.95H77.5512C77.5512 13.3944 76.9474 11.002 75.6963 8.84484L70.5061 11.8552ZM71.5512 15.95C71.5512 17.6692 71.0739 19.1308 70.125 20.4355L74.9774 23.9645C76.6952 21.6026 77.5512 18.8975 77.5512 15.95H71.5512ZM70.104 20.4647C69.262 21.6521 67.9449 22.6124 65.8926 23.2255L67.6098 28.9745C70.6907 28.0542 73.2403 26.4146 74.9984 23.9353L70.104 20.4647ZM64.1592 27.6105L72.2592 41.5105L77.4432 38.4895L69.3432 24.5895L64.1592 27.6105ZM74.8512 37H65.2012V43H74.8512V37ZM55.8512 23.7H61.1512V17.7H55.8512V23.7ZM61.1512 23.7C63.1585 23.7 65.234 23.2098 66.7725 21.6713L62.5299 17.4287C62.5207 17.4379 62.4611 17.4979 62.2647 17.5624C62.0537 17.6317 61.6997 17.7 61.1512 17.7V23.7ZM66.7269 21.716C68.264 20.2429 68.8512 18.2895 68.8512 16.3H62.8512C62.8512 17.1105 62.6383 17.3238 62.5755 17.384L66.7269 21.716ZM68.8512 16.3C68.8512 14.3279 68.2352 12.4295 66.7269 10.984L62.5755 15.316C62.6672 15.4039 62.8512 15.6054 62.8512 16.3H68.8512ZM66.7725 11.0287C65.234 9.49019 63.1585 9 61.1512 9V15C61.6997 15 62.0537 15.0683 62.2647 15.1376C62.4611 15.2021 62.5207 15.2621 62.5299 15.2713L66.7725 11.0287ZM61.1512 9H55.8512V15H61.1512V9ZM52.8512 12V20.7H58.8512V12H52.8512ZM111.768 33.8L114.61 32.8376L113.92 30.8H111.768V33.8ZM98.6684 33.8V30.8H96.5171L95.8269 32.8376L98.6684 33.8ZM96.5684 40V43H98.7196L99.4098 40.9624L96.5684 40ZM87.6184 40L84.7973 38.9793L83.3426 43H87.6184V40ZM100.318 4.9V1.9H98.2135L97.4973 3.87929L100.318 4.9ZM110.218 4.9L113.039 3.87929L112.323 1.9H110.218V4.9ZM122.918 40V43H127.194L125.739 38.9793L122.918 40ZM113.868 40L111.027 40.9624L111.717 43H113.868V40ZM109.568 27.2V30.2H113.751L112.41 26.2381L109.568 27.2ZM105.218 14.35L108.06 13.3881L105.202 4.94537L102.373 13.398L105.218 14.35ZM100.918 27.2L98.0734 26.248L96.751 30.2H100.918V27.2ZM111.768 30.8H98.6684V36.8H111.768V30.8ZM95.8269 32.8376L93.7269 39.0376L99.4098 40.9624L101.51 34.7624L95.8269 32.8376ZM96.5684 37H87.6184V43H96.5684V37ZM90.4394 41.0207L103.139 5.92071L97.4973 3.87929L84.7973 38.9793L90.4394 41.0207ZM100.318 7.9H110.218V1.9H100.318V7.9ZM107.397 5.92071L120.097 41.0207L125.739 38.9793L113.039 3.87929L107.397 5.92071ZM122.918 37H113.868V43H122.918V37ZM116.71 39.0376L114.61 32.8376L108.927 34.7624L111.027 40.9624L116.71 39.0376ZM112.41 26.2381L108.06 13.3881L102.377 15.3119L106.727 28.1619L112.41 26.2381ZM102.373 13.398L98.0734 26.248L103.763 28.152L108.063 15.302L102.373 13.398ZM100.918 30.2H109.568V24.2H100.918V30.2ZM157.134 40L154.747 41.8172L155.647 43H157.134V40ZM145.334 24.5L147.721 22.6828L142.334 15.6067V24.5H145.334ZM145.334 40V43H148.334V40H145.334ZM136.784 40H133.784V43H136.784V40ZM136.784 4.9V1.9H133.784V4.9H136.784ZM145.334 4.9H148.334V1.9H145.334V4.9ZM145.334 20.3H142.334V29.2078L147.722 22.1149L145.334 20.3ZM157.034 4.9V1.9H155.545L154.645 3.08514L157.034 4.9ZM167.084 4.9L169.437 6.76071L173.28 1.9H167.084V4.9ZM153.484 22.1L151.13 20.2393L149.662 22.0965L151.127 23.9564L153.484 22.1ZM167.584 40V43H173.766L169.94 38.1436L167.584 40ZM159.521 38.1828L147.721 22.6828L142.947 26.3172L154.747 41.8172L159.521 38.1828ZM142.334 24.5V40H148.334V24.5H142.334ZM145.334 37H136.784V43H145.334V37ZM139.784 40V4.9H133.784V40H139.784ZM136.784 7.9H145.334V1.9H136.784V7.9ZM142.334 4.9V20.3H148.334V4.9H142.334ZM147.722 22.1149L159.422 6.71486L154.645 3.08514L142.945 18.4851L147.722 22.1149ZM157.034 7.9H167.084V1.9H157.034V7.9ZM164.73 3.03929L151.13 20.2393L155.837 23.9607L169.437 6.76071L164.73 3.03929ZM151.127 23.9564L165.227 41.8564L169.94 38.1436L155.84 20.2436L151.127 23.9564ZM167.584 37H157.134V43H167.584V37ZM203.497 33.8L206.338 32.8376L205.648 30.8H203.497V33.8ZM190.397 33.8V30.8H188.246L187.555 32.8376L190.397 33.8ZM188.297 40V43H190.448L191.138 40.9624L188.297 40ZM179.347 40L176.526 38.9793L175.071 43H179.347V40ZM192.047 4.9V1.9H189.942L189.226 3.87929L192.047 4.9ZM201.947 4.9L204.768 3.87929L204.052 1.9H201.947V4.9ZM214.647 40V43H218.923L217.468 38.9793L214.647 40ZM205.597 40L202.755 40.9624L203.446 43H205.597V40ZM201.297 27.2V30.2H205.48L204.138 26.2381L201.297 27.2ZM196.947 14.35L199.788 13.3881L196.93 4.94537L194.102 13.398L196.947 14.35ZM192.647 27.2L189.802 26.248L188.479 30.2H192.647V27.2ZM203.497 30.8H190.397V36.8H203.497V30.8ZM187.555 32.8376L185.455 39.0376L191.138 40.9624L193.238 34.7624L187.555 32.8376ZM188.297 37H179.347V43H188.297V37ZM182.168 41.0207L194.868 5.92071L189.226 3.87929L176.526 38.9793L182.168 41.0207ZM192.047 7.9H201.947V1.9H192.047V7.9ZM199.126 5.92071L211.826 41.0207L217.468 38.9793L204.768 3.87929L199.126 5.92071ZM214.647 37H205.597V43H214.647V37ZM208.438 39.0376L206.338 32.8376L200.655 34.7624L202.755 40.9624L208.438 39.0376ZM204.138 26.2381L199.788 13.3881L194.105 15.3119L198.455 28.1619L204.138 26.2381ZM194.102 13.398L189.802 26.248L195.492 28.152L199.792 15.302L194.102 13.398ZM192.647 30.2H201.297V24.2H192.647V30.2ZM234.312 39.1L233.174 41.8759L234.312 39.1ZM229.412 35.4L226.994 37.1762L227.006 37.1921L227.018 37.2078L229.412 35.4ZM227.512 29.5V26.5H224.424L224.513 29.5869L227.512 29.5ZM236.612 29.5L239.596 29.1939L239.32 26.5H236.612V29.5ZM237.962 32.5L235.939 34.7155L235.966 34.74L235.994 34.7638L237.962 32.5ZM243.962 32.65L245.796 35.0239L245.829 34.9983L245.862 34.9719L243.962 32.65ZM244.162 28.05L242.041 30.1713L242.071 30.2016L242.102 30.231L244.162 28.05ZM242.012 26.65L240.804 29.3959L240.823 29.4046L240.843 29.4129L242.012 26.65ZM238.412 25.4L237.527 28.2664L237.541 28.2709L237.556 28.2752L238.412 25.4ZM232.862 23.3L231.546 25.9957L232.862 23.3ZM229.162 20.2L231.555 18.3907L229.162 20.2ZM231.162 7.2L232.999 9.57165L233.01 9.56362L233.02 9.5555L231.162 7.2ZM249.762 7.2L247.904 9.5555L247.915 9.56362L247.925 9.57165L249.762 7.2ZM253.562 14.9V17.9H256.717L256.558 14.7487L253.562 14.9ZM244.312 14.9L241.317 15.0762L241.483 17.9H244.312V14.9ZM243.062 12.25L241.094 14.5138L241.122 14.5387L241.151 14.5629L243.062 12.25ZM237.612 12.1L239.545 14.3947L239.579 14.3657L239.613 14.3357L237.612 12.1ZM238.262 17.1L239.794 14.5204V14.5204L238.262 17.1ZM243.262 19.15L244.223 16.3082L244.204 16.3018L244.186 16.2957L243.262 19.15ZM248.762 21.35L247.42 24.0333L247.433 24.0396L247.446 24.0457L248.762 21.35ZM252.462 24.4L250.091 26.2377V26.2377L252.462 24.4ZM252.462 35L249.927 33.3961L249.915 33.4147L249.904 33.4335L252.462 35ZM248.062 38.9L246.72 36.2167L248.062 38.9ZM241.212 37.35C238.971 37.35 237.067 36.9868 235.45 36.3241L233.174 41.8759C235.624 42.8799 238.32 43.35 241.212 43.35V37.35ZM235.45 36.3241C233.876 35.6793 232.691 34.7643 231.806 33.5922L227.018 37.2078C228.6 39.3024 230.681 40.854 233.174 41.8759L235.45 36.3241ZM231.83 33.6238C231.038 32.5461 230.562 31.1894 230.511 29.4131L224.513 29.5869C224.595 32.4106 225.386 34.9873 226.994 37.1762L231.83 33.6238ZM227.512 32.5H236.612V26.5H227.512V32.5ZM233.628 29.8061C233.816 31.6425 234.498 33.3999 235.939 34.7155L239.985 30.2845C239.892 30.2001 239.675 29.9575 239.596 29.1939L233.628 29.8061ZM235.994 34.7638C237.417 36.0015 239.167 36.5 240.962 36.5V30.5C240.291 30.5 240.041 30.3318 239.931 30.2362L235.994 34.7638ZM240.962 36.5C242.652 36.5 244.375 36.1224 245.796 35.0239L242.128 30.2761C242.083 30.3109 241.805 30.5 240.962 30.5V36.5ZM245.862 34.9719C247.36 33.7458 248.062 32.0403 248.062 30.2H242.062C242.062 30.281 242.055 30.3292 242.051 30.3511C242.046 30.3719 242.044 30.372 242.05 30.3587C242.057 30.3449 242.065 30.3304 242.074 30.3195C242.082 30.3091 242.081 30.3126 242.062 30.3281L245.862 34.9719ZM248.062 30.2C248.062 28.5544 247.455 27.0335 246.222 25.869L242.102 30.231C242.113 30.241 242.109 30.2396 242.1 30.2257C242.09 30.2113 242.079 30.1922 242.07 30.1709C242.066 30.161 242.063 30.1524 242.061 30.146C242.059 30.1395 242.058 30.1362 242.058 30.1366C242.058 30.1372 242.062 30.1567 242.062 30.2H248.062ZM246.283 25.9287C245.4 25.0456 244.343 24.3785 243.181 23.8871L240.843 29.4129C241.415 29.6548 241.791 29.9211 242.041 30.1713L246.283 25.9287ZM243.22 23.9041C242.217 23.4624 240.877 23.0039 239.269 22.5248L237.556 28.2752C239.081 28.7294 240.141 29.1043 240.804 29.3959L243.22 23.9041ZM239.297 22.5336C237.115 21.8595 235.423 21.2122 234.179 20.6043L231.546 25.9957C233.167 26.7878 235.176 27.5405 237.527 28.2664L239.297 22.5336ZM234.179 20.6043C233.2 20.1262 232.326 19.4099 231.555 18.3907L226.769 22.0093C228.065 23.7234 229.658 25.0738 231.546 25.9957L234.179 20.6043ZM231.555 18.3907C231.015 17.6765 230.612 16.5837 230.612 14.85H224.612C224.612 17.5163 225.242 19.9901 226.769 22.0093L231.555 18.3907ZM230.612 14.85C230.612 12.4139 231.44 10.7797 232.999 9.57165L229.325 4.82835C226.151 7.28692 224.612 10.7528 224.612 14.85H230.612ZM233.02 9.5555C234.732 8.20506 237.107 7.4 240.412 7.4V1.4C236.117 1.4 232.325 2.46161 229.304 4.8445L233.02 9.5555ZM240.412 7.4C243.798 7.4 246.201 8.2119 247.904 9.5555L251.62 4.8445C248.59 2.45476 244.76 1.4 240.412 1.4V7.4ZM247.925 9.57165C249.523 10.8097 250.438 12.523 250.566 15.0513L256.558 14.7487C256.353 10.677 254.734 7.25694 251.599 4.82835L247.925 9.57165ZM253.562 11.9H244.312V17.9H253.562V11.9ZM247.307 14.7238C247.199 12.8882 246.476 11.1786 244.973 9.93711L241.151 14.5629C241.201 14.6037 241.22 14.6323 241.236 14.6674C241.257 14.711 241.303 14.8307 241.317 15.0762L247.307 14.7238ZM245.031 9.98619C243.622 8.76141 241.898 8.25 240.112 8.25V14.25C240.727 14.25 240.969 14.4053 241.094 14.5138L245.031 9.98619ZM240.112 8.25C238.508 8.25 236.908 8.70439 235.612 9.86428L239.613 14.3357C239.618 14.3311 239.629 14.3193 239.678 14.3028C239.735 14.2835 239.868 14.25 240.112 14.25V8.25ZM235.68 9.80526C234.206 11.0462 233.662 12.7703 233.662 14.45H239.662C239.662 14.2352 239.695 14.1763 239.681 14.2119C239.673 14.2305 239.657 14.2634 239.629 14.3022C239.601 14.3413 239.571 14.3727 239.545 14.3947L235.68 9.80526ZM233.662 14.45C233.662 16.7576 234.857 18.5675 236.73 19.6796L239.794 14.5204C239.695 14.462 239.645 14.4192 239.626 14.4009C239.608 14.384 239.615 14.387 239.63 14.4119C239.646 14.4378 239.657 14.4656 239.662 14.4861C239.667 14.5049 239.662 14.4966 239.662 14.45H233.662ZM236.73 19.6796C238.092 20.4878 240.016 21.2529 242.339 22.0043L244.186 16.2957C241.975 15.5805 240.566 14.9788 239.794 14.5204L236.73 19.6796ZM242.301 21.9918C244.498 22.7349 246.19 23.4179 247.42 24.0333L250.104 18.6667C248.535 17.8821 246.56 17.0985 244.223 16.3082L242.301 21.9918ZM247.446 24.0457C248.443 24.5326 249.322 25.2459 250.091 26.2377L254.833 22.5623C253.535 20.8874 251.948 19.5674 250.079 18.6543L247.446 24.0457ZM250.091 26.2377C250.625 26.9273 251.012 27.9491 251.012 29.55H257.012C257.012 26.9509 256.366 24.5394 254.833 22.5623L250.091 26.2377ZM251.012 29.55C251.012 31.003 250.646 32.2599 249.927 33.3961L254.997 36.6039C256.345 34.4734 257.012 32.097 257.012 29.55H251.012ZM249.904 33.4335C249.233 34.5285 248.218 35.468 246.72 36.2167L249.404 41.5833C251.773 40.3987 253.691 38.7381 255.021 36.5665L249.904 33.4335ZM246.72 36.2167C245.285 36.9345 243.48 37.35 241.212 37.35V43.35C244.211 43.35 246.973 42.7988 249.404 41.5833L246.72 36.2167ZM299.674 4.9H302.674V1.9H299.674V4.9ZM299.674 40V43H302.674V40H299.674ZM291.124 40H288.124V43H291.124V40ZM291.124 25.55H294.124V22.55H291.124V25.55ZM277.824 25.55V22.55H274.824V25.55H277.824ZM277.824 40V43H280.824V40H277.824ZM269.274 40H266.274V43H269.274V40ZM269.274 4.9V1.9H266.274V4.9H269.274ZM277.824 4.9H280.824V1.9H277.824V4.9ZM277.824 18.65H274.824V21.65H277.824V18.65ZM291.124 18.65V21.65H294.124V18.65H291.124ZM291.124 4.9V1.9H288.124V4.9H291.124ZM296.674 4.9V40H302.674V4.9H296.674ZM299.674 37H291.124V43H299.674V37ZM294.124 40V25.55H288.124V40H294.124ZM291.124 22.55H277.824V28.55H291.124V22.55ZM274.824 25.55V40H280.824V25.55H274.824ZM277.824 37H269.274V43H277.824V37ZM272.274 40V4.9H266.274V40H272.274ZM269.274 7.9H277.824V1.9H269.274V7.9ZM274.824 4.9V18.65H280.824V4.9H274.824ZM277.824 21.65H291.124V15.65H277.824V21.65ZM294.124 18.65V4.9H288.124V18.65H294.124ZM291.124 7.9H299.674V1.9H291.124V7.9Z" fill="white" mask="url(#path-3-outside-2_420_13)"/>
</g>
<defs>
<clipPath id="clip0_420_13">
<rect width="306" height="101" fill="white"/>
</clipPath>
</defs>
</svg>
